<mxfile host="app.diagrams.net" agent="Mozilla/5.0 (Windows NT 10.0; Win64; x64) AppleWebKit/537.36 (KHTML, like Gecko) Chrome/130.0.0.0 Safari/537.36 Edg/130.0.0.0" version="24.8.4">
  <diagram name="Page-1" id="TthPRY_c5Me1Ms_tYkze">
    <mxGraphModel dx="684" dy="759" grid="1" gridSize="10" guides="1" tooltips="1" connect="1" arrows="1" fold="1" page="1" pageScale="1" pageWidth="850" pageHeight="1100" math="0" shadow="0">
      <root>
        <mxCell id="0" />
        <mxCell id="1" parent="0" />
        <mxCell id="ChJXFIcQa-NdF54EqS6T-12" style="edgeStyle=orthogonalEdgeStyle;rounded=0;orthogonalLoop=1;jettySize=auto;html=1;exitX=0.5;exitY=1;exitDx=0;exitDy=0;exitPerimeter=0;entryX=0.5;entryY=0;entryDx=0;entryDy=0;" edge="1" parent="1" source="ChJXFIcQa-NdF54EqS6T-1" target="ChJXFIcQa-NdF54EqS6T-4">
          <mxGeometry relative="1" as="geometry" />
        </mxCell>
        <mxCell id="ChJXFIcQa-NdF54EqS6T-1" value="Start" style="strokeWidth=2;html=1;shape=mxgraph.flowchart.terminator;whiteSpace=wrap;" vertex="1" parent="1">
          <mxGeometry x="30" y="10" width="120" height="40" as="geometry" />
        </mxCell>
        <mxCell id="ChJXFIcQa-NdF54EqS6T-15" style="edgeStyle=orthogonalEdgeStyle;rounded=0;orthogonalLoop=1;jettySize=auto;html=1;exitX=0.5;exitY=1;exitDx=0;exitDy=0;entryX=0.5;entryY=0;entryDx=0;entryDy=0;" edge="1" parent="1" source="ChJXFIcQa-NdF54EqS6T-3" target="ChJXFIcQa-NdF54EqS6T-5">
          <mxGeometry relative="1" as="geometry" />
        </mxCell>
        <mxCell id="ChJXFIcQa-NdF54EqS6T-3" value="Display Menu" style="shape=parallelogram;perimeter=parallelogramPerimeter;whiteSpace=wrap;html=1;fixedSize=1;" vertex="1" parent="1">
          <mxGeometry x="30" y="330" width="120" height="40" as="geometry" />
        </mxCell>
        <mxCell id="ChJXFIcQa-NdF54EqS6T-13" style="edgeStyle=orthogonalEdgeStyle;rounded=0;orthogonalLoop=1;jettySize=auto;html=1;exitX=0.5;exitY=1;exitDx=0;exitDy=0;entryX=0.5;entryY=0;entryDx=0;entryDy=0;" edge="1" parent="1" source="ChJXFIcQa-NdF54EqS6T-4" target="ChJXFIcQa-NdF54EqS6T-9">
          <mxGeometry relative="1" as="geometry" />
        </mxCell>
        <mxCell id="ChJXFIcQa-NdF54EqS6T-4" value="Initialize input, LinkedList playlist" style="rounded=0;whiteSpace=wrap;html=1;" vertex="1" parent="1">
          <mxGeometry x="30" y="90" width="120" height="40" as="geometry" />
        </mxCell>
        <mxCell id="ChJXFIcQa-NdF54EqS6T-16" style="edgeStyle=orthogonalEdgeStyle;rounded=0;orthogonalLoop=1;jettySize=auto;html=1;exitX=0.5;exitY=1;exitDx=0;exitDy=0;entryX=0.5;entryY=0;entryDx=0;entryDy=0;" edge="1" parent="1" source="ChJXFIcQa-NdF54EqS6T-5" target="ChJXFIcQa-NdF54EqS6T-6">
          <mxGeometry relative="1" as="geometry" />
        </mxCell>
        <mxCell id="ChJXFIcQa-NdF54EqS6T-5" value="Read input" style="shape=parallelogram;perimeter=parallelogramPerimeter;whiteSpace=wrap;html=1;fixedSize=1;" vertex="1" parent="1">
          <mxGeometry x="30" y="410" width="120" height="40" as="geometry" />
        </mxCell>
        <mxCell id="ChJXFIcQa-NdF54EqS6T-28" style="edgeStyle=orthogonalEdgeStyle;rounded=0;orthogonalLoop=1;jettySize=auto;html=1;exitX=0.5;exitY=1;exitDx=0;exitDy=0;entryX=0.5;entryY=0;entryDx=0;entryDy=0;" edge="1" parent="1" source="ChJXFIcQa-NdF54EqS6T-6" target="ChJXFIcQa-NdF54EqS6T-17">
          <mxGeometry relative="1" as="geometry" />
        </mxCell>
        <mxCell id="ChJXFIcQa-NdF54EqS6T-31" style="edgeStyle=orthogonalEdgeStyle;rounded=0;orthogonalLoop=1;jettySize=auto;html=1;exitX=1;exitY=0.5;exitDx=0;exitDy=0;entryX=0;entryY=0.5;entryDx=0;entryDy=0;" edge="1" parent="1" source="ChJXFIcQa-NdF54EqS6T-6" target="ChJXFIcQa-NdF54EqS6T-7">
          <mxGeometry relative="1" as="geometry" />
        </mxCell>
        <mxCell id="ChJXFIcQa-NdF54EqS6T-6" value="input = 1" style="rhombus;whiteSpace=wrap;html=1;" vertex="1" parent="1">
          <mxGeometry x="50" y="490" width="80" height="80" as="geometry" />
        </mxCell>
        <mxCell id="ChJXFIcQa-NdF54EqS6T-32" style="edgeStyle=orthogonalEdgeStyle;rounded=0;orthogonalLoop=1;jettySize=auto;html=1;exitX=0.5;exitY=1;exitDx=0;exitDy=0;entryX=0.5;entryY=0;entryDx=0;entryDy=0;" edge="1" parent="1" source="ChJXFIcQa-NdF54EqS6T-7" target="ChJXFIcQa-NdF54EqS6T-21">
          <mxGeometry relative="1" as="geometry" />
        </mxCell>
        <mxCell id="ChJXFIcQa-NdF54EqS6T-33" style="edgeStyle=orthogonalEdgeStyle;rounded=0;orthogonalLoop=1;jettySize=auto;html=1;exitX=1;exitY=0.5;exitDx=0;exitDy=0;entryX=0;entryY=0.5;entryDx=0;entryDy=0;" edge="1" parent="1" source="ChJXFIcQa-NdF54EqS6T-7" target="ChJXFIcQa-NdF54EqS6T-8">
          <mxGeometry relative="1" as="geometry" />
        </mxCell>
        <mxCell id="ChJXFIcQa-NdF54EqS6T-7" value="input = 2" style="rhombus;whiteSpace=wrap;html=1;" vertex="1" parent="1">
          <mxGeometry x="190" y="490" width="80" height="80" as="geometry" />
        </mxCell>
        <mxCell id="ChJXFIcQa-NdF54EqS6T-34" style="edgeStyle=orthogonalEdgeStyle;rounded=0;orthogonalLoop=1;jettySize=auto;html=1;exitX=0.5;exitY=1;exitDx=0;exitDy=0;entryX=0.5;entryY=0;entryDx=0;entryDy=0;" edge="1" parent="1" source="ChJXFIcQa-NdF54EqS6T-8" target="ChJXFIcQa-NdF54EqS6T-22">
          <mxGeometry relative="1" as="geometry" />
        </mxCell>
        <mxCell id="ChJXFIcQa-NdF54EqS6T-35" style="edgeStyle=orthogonalEdgeStyle;rounded=0;orthogonalLoop=1;jettySize=auto;html=1;exitX=1;exitY=0.5;exitDx=0;exitDy=0;entryX=0;entryY=0.5;entryDx=0;entryDy=0;" edge="1" parent="1" source="ChJXFIcQa-NdF54EqS6T-8" target="ChJXFIcQa-NdF54EqS6T-10">
          <mxGeometry relative="1" as="geometry" />
        </mxCell>
        <mxCell id="ChJXFIcQa-NdF54EqS6T-8" value="input = 3" style="rhombus;whiteSpace=wrap;html=1;" vertex="1" parent="1">
          <mxGeometry x="330" y="490" width="80" height="80" as="geometry" />
        </mxCell>
        <mxCell id="ChJXFIcQa-NdF54EqS6T-14" style="edgeStyle=orthogonalEdgeStyle;rounded=0;orthogonalLoop=1;jettySize=auto;html=1;exitX=0.5;exitY=1;exitDx=0;exitDy=0;entryX=0.5;entryY=0;entryDx=0;entryDy=0;" edge="1" parent="1" source="ChJXFIcQa-NdF54EqS6T-9" target="ChJXFIcQa-NdF54EqS6T-3">
          <mxGeometry relative="1" as="geometry" />
        </mxCell>
        <mxCell id="ChJXFIcQa-NdF54EqS6T-9" value="while true" style="rhombus;whiteSpace=wrap;html=1;" vertex="1" parent="1">
          <mxGeometry x="30" y="170" width="120" height="120" as="geometry" />
        </mxCell>
        <mxCell id="ChJXFIcQa-NdF54EqS6T-36" style="edgeStyle=orthogonalEdgeStyle;rounded=0;orthogonalLoop=1;jettySize=auto;html=1;exitX=0.5;exitY=1;exitDx=0;exitDy=0;entryX=0.5;entryY=0;entryDx=0;entryDy=0;" edge="1" parent="1" source="ChJXFIcQa-NdF54EqS6T-10" target="ChJXFIcQa-NdF54EqS6T-24">
          <mxGeometry relative="1" as="geometry" />
        </mxCell>
        <mxCell id="ChJXFIcQa-NdF54EqS6T-37" style="edgeStyle=orthogonalEdgeStyle;rounded=0;orthogonalLoop=1;jettySize=auto;html=1;exitX=1;exitY=0.5;exitDx=0;exitDy=0;entryX=0;entryY=0.5;entryDx=0;entryDy=0;" edge="1" parent="1" source="ChJXFIcQa-NdF54EqS6T-10" target="ChJXFIcQa-NdF54EqS6T-11">
          <mxGeometry relative="1" as="geometry" />
        </mxCell>
        <mxCell id="ChJXFIcQa-NdF54EqS6T-10" value="input = 4" style="rhombus;whiteSpace=wrap;html=1;" vertex="1" parent="1">
          <mxGeometry x="470" y="490" width="80" height="80" as="geometry" />
        </mxCell>
        <mxCell id="ChJXFIcQa-NdF54EqS6T-38" style="edgeStyle=orthogonalEdgeStyle;rounded=0;orthogonalLoop=1;jettySize=auto;html=1;exitX=0.5;exitY=1;exitDx=0;exitDy=0;entryX=0.5;entryY=0;entryDx=0;entryDy=0;" edge="1" parent="1" source="ChJXFIcQa-NdF54EqS6T-11" target="ChJXFIcQa-NdF54EqS6T-26">
          <mxGeometry relative="1" as="geometry" />
        </mxCell>
        <mxCell id="ChJXFIcQa-NdF54EqS6T-41" style="edgeStyle=orthogonalEdgeStyle;rounded=0;orthogonalLoop=1;jettySize=auto;html=1;exitX=1;exitY=0.5;exitDx=0;exitDy=0;entryX=0;entryY=0.5;entryDx=0;entryDy=0;" edge="1" parent="1" source="ChJXFIcQa-NdF54EqS6T-11" target="ChJXFIcQa-NdF54EqS6T-27">
          <mxGeometry relative="1" as="geometry" />
        </mxCell>
        <mxCell id="ChJXFIcQa-NdF54EqS6T-11" value="input = 5" style="rhombus;whiteSpace=wrap;html=1;" vertex="1" parent="1">
          <mxGeometry x="610" y="490" width="80" height="80" as="geometry" />
        </mxCell>
        <mxCell id="ChJXFIcQa-NdF54EqS6T-29" style="edgeStyle=orthogonalEdgeStyle;rounded=0;orthogonalLoop=1;jettySize=auto;html=1;exitX=0.5;exitY=1;exitDx=0;exitDy=0;entryX=0.5;entryY=0;entryDx=0;entryDy=0;" edge="1" parent="1" source="ChJXFIcQa-NdF54EqS6T-17" target="ChJXFIcQa-NdF54EqS6T-18">
          <mxGeometry relative="1" as="geometry" />
        </mxCell>
        <mxCell id="ChJXFIcQa-NdF54EqS6T-17" value="read title" style="shape=parallelogram;perimeter=parallelogramPerimeter;whiteSpace=wrap;html=1;fixedSize=1;" vertex="1" parent="1">
          <mxGeometry x="30" y="610" width="120" height="40" as="geometry" />
        </mxCell>
        <mxCell id="ChJXFIcQa-NdF54EqS6T-30" style="edgeStyle=orthogonalEdgeStyle;rounded=0;orthogonalLoop=1;jettySize=auto;html=1;exitX=0.5;exitY=1;exitDx=0;exitDy=0;entryX=0.5;entryY=0;entryDx=0;entryDy=0;" edge="1" parent="1" source="ChJXFIcQa-NdF54EqS6T-18" target="ChJXFIcQa-NdF54EqS6T-19">
          <mxGeometry relative="1" as="geometry" />
        </mxCell>
        <mxCell id="ChJXFIcQa-NdF54EqS6T-18" value="read title" style="shape=parallelogram;perimeter=parallelogramPerimeter;whiteSpace=wrap;html=1;fixedSize=1;" vertex="1" parent="1">
          <mxGeometry x="30" y="690" width="120" height="40" as="geometry" />
        </mxCell>
        <mxCell id="ChJXFIcQa-NdF54EqS6T-45" style="edgeStyle=orthogonalEdgeStyle;rounded=0;orthogonalLoop=1;jettySize=auto;html=1;exitX=0.5;exitY=1;exitDx=0;exitDy=0;entryX=0;entryY=0.5;entryDx=0;entryDy=0;" edge="1" parent="1" source="ChJXFIcQa-NdF54EqS6T-19" target="ChJXFIcQa-NdF54EqS6T-9">
          <mxGeometry relative="1" as="geometry" />
        </mxCell>
        <mxCell id="ChJXFIcQa-NdF54EqS6T-19" value="add song to playlist" style="rounded=0;whiteSpace=wrap;html=1;" vertex="1" parent="1">
          <mxGeometry x="30" y="770" width="120" height="40" as="geometry" />
        </mxCell>
        <mxCell id="ChJXFIcQa-NdF54EqS6T-46" style="edgeStyle=orthogonalEdgeStyle;rounded=0;orthogonalLoop=1;jettySize=auto;html=1;exitX=0.5;exitY=1;exitDx=0;exitDy=0;entryX=0;entryY=0.5;entryDx=0;entryDy=0;" edge="1" parent="1" source="ChJXFIcQa-NdF54EqS6T-21" target="ChJXFIcQa-NdF54EqS6T-9">
          <mxGeometry relative="1" as="geometry">
            <Array as="points">
              <mxPoint x="230" y="830" />
              <mxPoint x="10" y="830" />
              <mxPoint x="10" y="230" />
            </Array>
          </mxGeometry>
        </mxCell>
        <mxCell id="ChJXFIcQa-NdF54EqS6T-21" value="display playlist" style="shape=parallelogram;perimeter=parallelogramPerimeter;whiteSpace=wrap;html=1;fixedSize=1;" vertex="1" parent="1">
          <mxGeometry x="170" y="610" width="120" height="40" as="geometry" />
        </mxCell>
        <mxCell id="ChJXFIcQa-NdF54EqS6T-42" style="edgeStyle=orthogonalEdgeStyle;rounded=0;orthogonalLoop=1;jettySize=auto;html=1;exitX=0.5;exitY=1;exitDx=0;exitDy=0;entryX=0.5;entryY=0;entryDx=0;entryDy=0;" edge="1" parent="1" source="ChJXFIcQa-NdF54EqS6T-22" target="ChJXFIcQa-NdF54EqS6T-23">
          <mxGeometry relative="1" as="geometry" />
        </mxCell>
        <mxCell id="ChJXFIcQa-NdF54EqS6T-22" value="read title" style="shape=parallelogram;perimeter=parallelogramPerimeter;whiteSpace=wrap;html=1;fixedSize=1;" vertex="1" parent="1">
          <mxGeometry x="310" y="610" width="120" height="40" as="geometry" />
        </mxCell>
        <mxCell id="ChJXFIcQa-NdF54EqS6T-47" style="edgeStyle=orthogonalEdgeStyle;rounded=0;orthogonalLoop=1;jettySize=auto;html=1;exitX=0.5;exitY=1;exitDx=0;exitDy=0;" edge="1" parent="1" source="ChJXFIcQa-NdF54EqS6T-23">
          <mxGeometry relative="1" as="geometry">
            <mxPoint x="30" y="230" as="targetPoint" />
            <Array as="points">
              <mxPoint x="370" y="830" />
              <mxPoint x="10" y="830" />
              <mxPoint x="10" y="230" />
            </Array>
          </mxGeometry>
        </mxCell>
        <mxCell id="ChJXFIcQa-NdF54EqS6T-23" value="remove song from playlist" style="rounded=0;whiteSpace=wrap;html=1;" vertex="1" parent="1">
          <mxGeometry x="310" y="690" width="120" height="40" as="geometry" />
        </mxCell>
        <mxCell id="ChJXFIcQa-NdF54EqS6T-43" style="edgeStyle=orthogonalEdgeStyle;rounded=0;orthogonalLoop=1;jettySize=auto;html=1;exitX=0.5;exitY=1;exitDx=0;exitDy=0;entryX=0.5;entryY=0;entryDx=0;entryDy=0;" edge="1" parent="1" source="ChJXFIcQa-NdF54EqS6T-24" target="ChJXFIcQa-NdF54EqS6T-25">
          <mxGeometry relative="1" as="geometry" />
        </mxCell>
        <mxCell id="ChJXFIcQa-NdF54EqS6T-24" value="display current&amp;nbsp;&lt;div&gt;song&lt;/div&gt;" style="shape=parallelogram;perimeter=parallelogramPerimeter;whiteSpace=wrap;html=1;fixedSize=1;" vertex="1" parent="1">
          <mxGeometry x="450" y="610" width="120" height="40" as="geometry" />
        </mxCell>
        <mxCell id="ChJXFIcQa-NdF54EqS6T-49" style="edgeStyle=orthogonalEdgeStyle;rounded=0;orthogonalLoop=1;jettySize=auto;html=1;exitX=0.5;exitY=1;exitDx=0;exitDy=0;entryX=0;entryY=0.5;entryDx=0;entryDy=0;" edge="1" parent="1" source="ChJXFIcQa-NdF54EqS6T-25" target="ChJXFIcQa-NdF54EqS6T-9">
          <mxGeometry relative="1" as="geometry">
            <Array as="points">
              <mxPoint x="510" y="830" />
              <mxPoint x="10" y="830" />
              <mxPoint x="10" y="230" />
            </Array>
          </mxGeometry>
        </mxCell>
        <mxCell id="ChJXFIcQa-NdF54EqS6T-25" value="display next&amp;nbsp;&lt;div&gt;song&lt;/div&gt;" style="shape=parallelogram;perimeter=parallelogramPerimeter;whiteSpace=wrap;html=1;fixedSize=1;" vertex="1" parent="1">
          <mxGeometry x="450" y="690" width="120" height="40" as="geometry" />
        </mxCell>
        <mxCell id="ChJXFIcQa-NdF54EqS6T-26" value="display &quot;Exiting playlist&quot;" style="shape=parallelogram;perimeter=parallelogramPerimeter;whiteSpace=wrap;html=1;fixedSize=1;" vertex="1" parent="1">
          <mxGeometry x="590" y="610" width="120" height="40" as="geometry" />
        </mxCell>
        <mxCell id="ChJXFIcQa-NdF54EqS6T-50" style="edgeStyle=orthogonalEdgeStyle;rounded=0;orthogonalLoop=1;jettySize=auto;html=1;exitX=0.5;exitY=1;exitDx=0;exitDy=0;" edge="1" parent="1" source="ChJXFIcQa-NdF54EqS6T-27">
          <mxGeometry relative="1" as="geometry">
            <mxPoint x="30" y="230" as="targetPoint" />
            <Array as="points">
              <mxPoint x="790" y="830" />
              <mxPoint x="10" y="830" />
              <mxPoint x="10" y="230" />
            </Array>
          </mxGeometry>
        </mxCell>
        <mxCell id="ChJXFIcQa-NdF54EqS6T-27" value="display &quot;Invalid choice. Please try again.&quot;" style="shape=parallelogram;perimeter=parallelogramPerimeter;whiteSpace=wrap;html=1;fixedSize=1;" vertex="1" parent="1">
          <mxGeometry x="730" y="505" width="120" height="50" as="geometry" />
        </mxCell>
        <mxCell id="ChJXFIcQa-NdF54EqS6T-40" value="End" style="strokeWidth=2;html=1;shape=mxgraph.flowchart.terminator;whiteSpace=wrap;" vertex="1" parent="1">
          <mxGeometry x="590" y="760" width="120" height="40" as="geometry" />
        </mxCell>
        <mxCell id="ChJXFIcQa-NdF54EqS6T-44" style="edgeStyle=orthogonalEdgeStyle;rounded=0;orthogonalLoop=1;jettySize=auto;html=1;exitX=0.5;exitY=1;exitDx=0;exitDy=0;entryX=0.5;entryY=0;entryDx=0;entryDy=0;entryPerimeter=0;" edge="1" parent="1" source="ChJXFIcQa-NdF54EqS6T-26" target="ChJXFIcQa-NdF54EqS6T-40">
          <mxGeometry relative="1" as="geometry" />
        </mxCell>
        <mxCell id="ChJXFIcQa-NdF54EqS6T-51" value="false" style="text;html=1;align=center;verticalAlign=middle;resizable=0;points=[];autosize=1;strokeColor=none;fillColor=none;" vertex="1" parent="1">
          <mxGeometry x="130" y="498" width="50" height="30" as="geometry" />
        </mxCell>
        <mxCell id="ChJXFIcQa-NdF54EqS6T-52" value="false" style="text;html=1;align=center;verticalAlign=middle;resizable=0;points=[];autosize=1;strokeColor=none;fillColor=none;" vertex="1" parent="1">
          <mxGeometry x="270" y="498" width="50" height="30" as="geometry" />
        </mxCell>
        <mxCell id="ChJXFIcQa-NdF54EqS6T-53" value="false" style="text;html=1;align=center;verticalAlign=middle;resizable=0;points=[];autosize=1;strokeColor=none;fillColor=none;" vertex="1" parent="1">
          <mxGeometry x="410" y="498" width="50" height="30" as="geometry" />
        </mxCell>
        <mxCell id="ChJXFIcQa-NdF54EqS6T-54" value="false" style="text;html=1;align=center;verticalAlign=middle;resizable=0;points=[];autosize=1;strokeColor=none;fillColor=none;" vertex="1" parent="1">
          <mxGeometry x="550" y="498" width="50" height="30" as="geometry" />
        </mxCell>
        <mxCell id="ChJXFIcQa-NdF54EqS6T-55" value="false" style="text;html=1;align=center;verticalAlign=middle;resizable=0;points=[];autosize=1;strokeColor=none;fillColor=none;" vertex="1" parent="1">
          <mxGeometry x="690" y="498" width="50" height="30" as="geometry" />
        </mxCell>
        <mxCell id="ChJXFIcQa-NdF54EqS6T-56" value="true" style="text;html=1;align=center;verticalAlign=middle;resizable=0;points=[];autosize=1;strokeColor=none;fillColor=none;" vertex="1" parent="1">
          <mxGeometry x="90" y="570" width="40" height="30" as="geometry" />
        </mxCell>
        <mxCell id="ChJXFIcQa-NdF54EqS6T-57" value="true" style="text;html=1;align=center;verticalAlign=middle;resizable=0;points=[];autosize=1;strokeColor=none;fillColor=none;" vertex="1" parent="1">
          <mxGeometry x="230" y="570" width="40" height="30" as="geometry" />
        </mxCell>
        <mxCell id="ChJXFIcQa-NdF54EqS6T-58" value="true" style="text;html=1;align=center;verticalAlign=middle;resizable=0;points=[];autosize=1;strokeColor=none;fillColor=none;" vertex="1" parent="1">
          <mxGeometry x="370" y="570" width="40" height="30" as="geometry" />
        </mxCell>
        <mxCell id="ChJXFIcQa-NdF54EqS6T-59" value="true" style="text;html=1;align=center;verticalAlign=middle;resizable=0;points=[];autosize=1;strokeColor=none;fillColor=none;" vertex="1" parent="1">
          <mxGeometry x="510" y="570" width="40" height="30" as="geometry" />
        </mxCell>
        <mxCell id="ChJXFIcQa-NdF54EqS6T-60" value="true" style="text;html=1;align=center;verticalAlign=middle;resizable=0;points=[];autosize=1;strokeColor=none;fillColor=none;" vertex="1" parent="1">
          <mxGeometry x="650" y="570" width="40" height="30" as="geometry" />
        </mxCell>
      </root>
    </mxGraphModel>
  </diagram>
</mxfile>
